<svg xmlns="http://www.w3.org/2000/svg" width="124.551" height="92.806" viewBox="0 0 124.551 92.806">
  <g id="Celebration-rafiki" transform="translate(0 -55)">
    <g id="freepik--background-complete--inject-37" transform="translate(0 55)">
      <rect id="Rectangle_6" data-name="Rectangle 6" width="124.551" height="0.062" transform="translate(0 81.556)" fill="#ebebeb"/>
      <rect id="Rectangle_7" data-name="Rectangle 7" width="8.25" height="0.062" transform="translate(13.068 83.928)" fill="#ebebeb"/>
      <rect id="Rectangle_8" data-name="Rectangle 8" width="11.646" height="0.062" transform="translate(42.631 83.253)" fill="#ebebeb"/>
      <rect id="Rectangle_9" data-name="Rectangle 9" width="4.78" height="0.062" transform="translate(28.099 85.853)" fill="#ebebeb"/>
      <rect id="Rectangle_10" data-name="Rectangle 10" width="7.525" height="0.062" transform="translate(77.802 84.772)" fill="#ebebeb"/>
      <rect id="Rectangle_11" data-name="Rectangle 11" width="4.813" height="0.062" transform="translate(87.545 84.772)" fill="#ebebeb"/>
      <rect id="Rectangle_12" data-name="Rectangle 12" width="14.587" height="0.062" transform="translate(97.486 85.823)" fill="#ebebeb"/>
      <path id="Path_1" data-name="Path 1" d="M87.729,125.446H39.63a1.422,1.422,0,0,1-1.42-1.422V56.41A1.422,1.422,0,0,1,39.63,55h48.1a1.422,1.422,0,0,1,1.422,1.422v67.6A1.422,1.422,0,0,1,87.729,125.446Zm-48.1-70.4a1.36,1.36,0,0,0-1.358,1.36v67.614a1.36,1.36,0,0,0,1.358,1.36h48.1a1.363,1.363,0,0,0,1.36-1.36V56.41a1.363,1.363,0,0,0-1.36-1.36Z" transform="translate(-28.692 -55)" fill="#ebebeb"/>
      <path id="Path_2" data-name="Path 2" d="M304.024,125.446h-48.1a1.425,1.425,0,0,1-1.422-1.422V56.41A1.425,1.425,0,0,1,255.922,55h48.1a1.422,1.422,0,0,1,1.417,1.41v67.614A1.422,1.422,0,0,1,304.024,125.446Zm-48.1-70.4a1.363,1.363,0,0,0-1.36,1.36v67.614a1.363,1.363,0,0,0,1.36,1.36h48.1a1.363,1.363,0,0,0,1.36-1.36V56.41a1.363,1.363,0,0,0-1.36-1.36Z" transform="translate(-191.103 -55)" fill="#ebebeb"/>
      <rect id="Rectangle_13" data-name="Rectangle 13" width="59.269" height="37.089" transform="translate(81.566 47.384) rotate(180)" fill="#f0f0f0"/>
      <rect id="Rectangle_14" data-name="Rectangle 14" width="33.601" height="56.95" transform="translate(80.405 12.039) rotate(90)" fill="#fafafa"/>
      <path id="Path_3" data-name="Path 3" d="M262.091,136.931l-5.844-33.6H251.94l5.841,33.6Z" transform="translate(-189.181 -91.291)" fill="#fff"/>
      <path id="Path_4" data-name="Path 4" d="M247.987,136.931l-5.841-33.6H240.22l5.841,33.6Z" transform="translate(-180.381 -91.291)" fill="#fff"/>
      <path id="Path_5" data-name="Path 5" d="M202.968,136.931l-5.841-33.6H192.82l5.841,33.6Z" transform="translate(-144.788 -91.291)" fill="#fff"/>
      <path id="Path_6" data-name="Path 6" d="M166.55,136.931l-5.844-33.6H158.78l5.841,33.6Z" transform="translate(-119.227 -91.291)" fill="#fff"/>
      <rect id="Rectangle_15" data-name="Rectangle 15" width="33.601" height="0.294" transform="translate(65.442 12.039) rotate(90)" fill="#e0e0e0"/>
      <rect id="Rectangle_16" data-name="Rectangle 16" width="33.601" height="0.294" transform="translate(80.405 12.042) rotate(90)" fill="#e0e0e0"/>
      <rect id="Rectangle_17" data-name="Rectangle 17" width="33.601" height="1.161" transform="translate(66.603 12.039) rotate(90)" fill="#f0f0f0"/>
      <rect id="Rectangle_18" data-name="Rectangle 18" width="33.601" height="0.294" transform="translate(51.066 12.039) rotate(90)" fill="#e0e0e0"/>
      <rect id="Rectangle_19" data-name="Rectangle 19" width="33.601" height="1.161" transform="translate(52.224 12.039) rotate(90)" fill="#f0f0f0"/>
      <rect id="Rectangle_20" data-name="Rectangle 20" width="33.601" height="0.294" transform="translate(36.68 12.039) rotate(90)" fill="#e0e0e0"/>
      <rect id="Rectangle_21" data-name="Rectangle 21" width="33.601" height="1.161" transform="translate(37.841 12.042) rotate(90)" fill="#f0f0f0"/>
      <rect id="Rectangle_22" data-name="Rectangle 22" width="37.089" height="0.294" transform="translate(22.295 10.295) rotate(90)" fill="#e0e0e0"/>
      <path id="Path_7" data-name="Path 7" d="M64.166,83.775h67.923a.389.389,0,0,0,.389-.386h0a.389.389,0,0,0-.389-.389H64.166a.389.389,0,0,0-.386.389h0A.389.389,0,0,0,64.166,83.775Z" transform="translate(-47.892 -76.025)" fill="#e0e0e0"/>
      <g id="Group_2" data-name="Group 2" transform="translate(57.476 6.228)" opacity="0.6">
        <rect id="Rectangle_23" data-name="Rectangle 23" width="25.772" height="67.674" transform="translate(25.772 67.674) rotate(180)" fill="#f5f5f5"/>
        <path id="Path_8" data-name="Path 8" d="M293.64,149.894h2.16l-.605-67.674h-.967Z" transform="translate(-277.969 -81.667)" fill="#e6e6e6"/>
        <path id="Path_9" data-name="Path 9" d="M312.77,149.894h1.044L313.52,82.22h-.466Z" transform="translate(-292.334 -81.667)" fill="#e6e6e6"/>
        <path id="Path_10" data-name="Path 10" d="M268.5,149.894h1.041L269.25,82.22h-.466Z" transform="translate(-259.091 -81.667)" fill="#e6e6e6"/>
        <path id="Path_11" data-name="Path 11" d="M247.2,149.894h1.041L247.95,82.22h-.466Z" transform="translate(-243.097 -81.667)" fill="#e6e6e6"/>
      </g>
      <g id="Group_3" data-name="Group 3" transform="translate(17.604 6.228)" opacity="0.6">
        <rect id="Rectangle_24" data-name="Rectangle 24" width="12.886" height="67.674" transform="translate(12.886 67.674) rotate(180)" fill="#f5f5f5"/>
        <path id="Path_12" data-name="Path 12" d="M102.13,149.894h1.079l-.3-67.674h-.483Z" transform="translate(-94.293 -81.667)" fill="#e6e6e6"/>
        <path id="Path_13" data-name="Path 13" d="M111.69,149.894h.521l-.144-67.674h-.234Z" transform="translate(-101.472 -81.667)" fill="#e6e6e6"/>
        <path id="Path_14" data-name="Path 14" d="M89.56,149.894h.521L89.934,82.22H89.7Z" transform="translate(-84.854 -81.667)" fill="#e6e6e6"/>
        <path id="Path_15" data-name="Path 15" d="M78.91,149.894h.521L79.284,82.22h-.234Z" transform="translate(-76.857 -81.667)" fill="#e6e6e6"/>
      </g>
      <rect id="Rectangle_25" data-name="Rectangle 25" width="17.096" height="21.338" transform="translate(89.951 16.69)" fill="#e6e6e6"/>
      <rect id="Rectangle_26" data-name="Rectangle 26" width="17.592" height="21.338" transform="translate(90.208 16.69)" fill="#f5f5f5"/>
      <rect id="Rectangle_27" data-name="Rectangle 27" width="18.309" height="14.894" transform="translate(106.452 18.204) rotate(90)" fill="#fafafa"/>
      <rect id="Rectangle_28" data-name="Rectangle 28" width="18.309" height="0.139" transform="translate(106.452 18.204) rotate(90)" fill="#e6e6e6"/>
      <circle id="Ellipse_1" data-name="Ellipse 1" cx="2.152" cy="2.152" r="2.152" transform="translate(99.366 24.634) rotate(-45)" fill="#f0f0f0"/>
      <circle id="Ellipse_2" data-name="Ellipse 2" cx="4.374" cy="4.374" r="4.374" transform="translate(92.786 27.862) rotate(-45)" fill="#fff"/>
      <circle id="Ellipse_3" data-name="Ellipse 3" cx="2.152" cy="2.152" r="2.152" transform="translate(93.15 26.231) rotate(-76.72)" fill="#f0f0f0"/>
      <rect id="Rectangle_29" data-name="Rectangle 29" width="2.337" height="23.819" transform="translate(87.106 56.138)" fill="#f0f0f0"/>
      <rect id="Rectangle_30" data-name="Rectangle 30" width="24.865" height="1.425" transform="translate(86.538 54.713)" fill="#f0f0f0"/>
      <rect id="Rectangle_31" data-name="Rectangle 31" width="21.824" height="1.599" transform="translate(88.058 79.957)" fill="#f0f0f0"/>
      <rect id="Rectangle_32" data-name="Rectangle 32" width="21.393" height="23.819" transform="translate(89.443 56.138)" fill="#fafafa"/>
      <rect id="Rectangle_33" data-name="Rectangle 33" width="17.494" height="7.309" transform="translate(108.885 66.099) rotate(180)" fill="#f0f0f0"/>
      <rect id="Rectangle_34" data-name="Rectangle 34" width="17.494" height="7.309" transform="translate(108.885 76.848) rotate(180)" fill="#f0f0f0"/>
      <rect id="Rectangle_35" data-name="Rectangle 35" width="4.895" height="1.136" rx="0.568" transform="translate(97.691 58.36)" fill="#fafafa"/>
      <rect id="Rectangle_36" data-name="Rectangle 36" width="4.895" height="1.136" rx="0.568" transform="translate(97.691 69.111)" fill="#fafafa"/>
      <circle id="Ellipse_4" data-name="Ellipse 4" cx="5.371" cy="5.371" r="5.371" transform="translate(40.699 71.742) rotate(-9.22)" fill="#ebebeb"/>
      <circle id="Ellipse_5" data-name="Ellipse 5" cx="6.703" cy="6.703" r="6.703" transform="translate(30.92 69.309) rotate(-9.22)" fill="#f5f5f5"/>
    </g>
    <g id="freepik--Shadow--inject-37" transform="translate(13.977 142.166)">
      <ellipse id="freepik--path--inject-37" cx="48.299" cy="2.82" rx="48.299" ry="2.82" fill="#f5f5f5"/>
    </g>
    <g id="freepik--Confetti--inject-37" transform="translate(14.168 61.473)">
      <path id="Path_16" data-name="Path 16" d="M119.154,191.006a2.956,2.956,0,0,1-2.454-1.726.329.329,0,0,1,.6-.274,2.3,2.3,0,0,0,1.908,1.345.329.329,0,0,1,.017.655Z" transform="translate(-101.783 -161.972)" fill="#1ebec3"/>
      <path id="Path_17" data-name="Path 17" d="M210.868,100.1a3.144,3.144,0,0,1-.428-.027.327.327,0,1,1,.1-.648h0a2.327,2.327,0,0,0,2.172-.857.327.327,0,0,1,.558.341A2.757,2.757,0,0,1,210.868,100.1Z" transform="translate(-171.977 -94.071)" fill="#1ebec3"/>
      <path id="Path_18" data-name="Path 18" d="M210.868,100.1a3.144,3.144,0,0,1-.428-.027.327.327,0,1,1,.1-.648h0a2.327,2.327,0,0,0,2.172-.857.327.327,0,0,1,.558.341A2.757,2.757,0,0,1,210.868,100.1Z" transform="translate(-171.977 -94.071)" fill="#fff" opacity="0.6"/>
      <path id="Path_19" data-name="Path 19" d="M58.8,151.754a3.433,3.433,0,0,1-1.774-.565.326.326,0,1,1,.379-.531h0a2.34,2.34,0,0,0,2.327.174.329.329,0,1,1,.354.553A2.352,2.352,0,0,1,58.8,151.754Z" transform="translate(-56.877 -133.249)" fill="#1ebec3"/>
      <path id="Path_20" data-name="Path 20" d="M58.8,151.754a3.433,3.433,0,0,1-1.774-.565.326.326,0,1,1,.379-.531h0a2.34,2.34,0,0,0,2.327.174.329.329,0,1,1,.354.553A2.352,2.352,0,0,1,58.8,151.754Z" transform="translate(-56.877 -133.249)" fill="#fff" opacity="0.6"/>
      <path id="Path_21" data-name="Path 21" d="M401.85,116.752a3.455,3.455,0,0,1-1.776-.548.327.327,0,1,1,.371-.538h0a2.352,2.352,0,0,0,2.329.174.327.327,0,0,1,.351.551A2.327,2.327,0,0,1,401.85,116.752Z" transform="translate(-314.477 -106.984)" fill="#1ebec3"/>
      <path id="Path_22" data-name="Path 22" d="M401.85,116.752a3.455,3.455,0,0,1-1.776-.548.327.327,0,1,1,.371-.538h0a2.352,2.352,0,0,0,2.329.174.327.327,0,0,1,.351.551A2.327,2.327,0,0,1,401.85,116.752Z" transform="translate(-314.477 -106.984)" fill="#fff" opacity="0.6"/>
      <path id="Path_23" data-name="Path 23" d="M239.463,217.364a3.014,3.014,0,0,1-2.4-1.547.327.327,0,1,1,.573-.316,2.282,2.282,0,0,0,1.993,1.2.329.329,0,0,1,.067.653C239.625,217.359,239.543,217.364,239.463,217.364Z" transform="translate(-192.15 -181.865)" fill="#1ebec3"/>
      <path id="Path_24" data-name="Path 24" d="M239.463,217.364a3.014,3.014,0,0,1-2.4-1.547.327.327,0,1,1,.573-.316,2.282,2.282,0,0,0,1.993,1.2.329.329,0,0,1,.067.653C239.625,217.359,239.543,217.364,239.463,217.364Z" transform="translate(-192.15 -181.865)" fill="#fff" opacity="0.6"/>
      <path id="Path_25" data-name="Path 25" d="M78.025,242.532a.326.326,0,0,1-.077-.643h0c.015,0,1.477-.386,1.676-1.627a.327.327,0,0,1,.645.1,2.934,2.934,0,0,1-2.165,2.157A.431.431,0,0,1,78.025,242.532Z" transform="translate(-72.514 -200.38)" fill="#1ebec3"/>
      <path id="Path_26" data-name="Path 26" d="M78.025,242.532a.326.326,0,0,1-.077-.643h0c.015,0,1.477-.386,1.676-1.627a.327.327,0,0,1,.645.1,2.934,2.934,0,0,1-2.165,2.157A.431.431,0,0,1,78.025,242.532Z" transform="translate(-72.514 -200.38)" opacity="0.6"/>
      <path id="Path_27" data-name="Path 27" d="M369.983,151.309a.326.326,0,0,1-.08-.645h0c.015,0,1.477-.384,1.676-1.624a.329.329,0,1,1,.648.1,2.929,2.929,0,0,1-2.167,2.155A.274.274,0,0,1,369.983,151.309Z" transform="translate(-291.734 -131.863)" fill="#1ebec3"/>
      <path id="Path_28" data-name="Path 28" d="M369.983,151.309a.326.326,0,0,1-.08-.645h0c.015,0,1.477-.384,1.676-1.624a.329.329,0,1,1,.648.1,2.929,2.929,0,0,1-2.167,2.155A.274.274,0,0,1,369.983,151.309Z" transform="translate(-291.734 -131.863)" opacity="0.6"/>
      <path id="Path_29" data-name="Path 29" d="M417.578,201.692h-.055a2.935,2.935,0,0,1-2.309-1.993.329.329,0,1,1,.643-.144c.284,1.221,1.769,1.495,1.784,1.495a.329.329,0,0,1-.057.65Z" transform="translate(-325.945 -169.826)" fill="#1ebec3"/>
      <path id="Path_30" data-name="Path 30" d="M396.162,253.676a2.391,2.391,0,0,1-1.564-.551.326.326,0,1,1,.418-.5,2.324,2.324,0,0,0,2.332.122.328.328,0,0,1,.3.583A3.547,3.547,0,0,1,396.162,253.676Z" transform="translate(-310.368 -209.801)" fill="#1ebec3"/>
      <path id="Path_31" data-name="Path 31" d="M334.956,83.979a.322.322,0,0,1-.162-.042,2.92,2.92,0,0,1-1.495-2.66.327.327,0,0,1,.65.075,2.33,2.33,0,0,0,1.176,2.018.326.326,0,0,1-.169.61Z" transform="translate(-264.429 -80.986)" fill="#1ebec3"/>
      <path id="Path_32" data-name="Path 32" d="M77.764,91.03a.327.327,0,1,1-.027-.653c1.246-.11,1.744-1.539,1.744-1.554a.326.326,0,0,1,.62.2,2.9,2.9,0,0,1-2.307,1.993Z" transform="translate(-72.305 -86.709)" fill="#1ebec3"/>
    </g>
    <g id="freepik--character-1--inject-37" transform="translate(30.497 66.648)">
      <path id="Path_33" data-name="Path 33" d="M152.183,129.884c-.884.414-1.664,2.4-1.41,5.256s-5.66.852-6.464,4.05c-1.452,5.789,8.285,9.269,12.435,5.789,2.568-2.152,4.982-9.247,4.628-13.118C160.994,127.7,154.537,124.907,152.183,129.884Z" transform="translate(-138.749 -120.881)" fill="#263238"/>
      <path id="Path_34" data-name="Path 34" d="M213.87,136.02c.11-.032.269-.08.406-.125l.428-.144c.286-.1.57-.209.852-.326a15.971,15.971,0,0,0,1.639-.785,10.2,10.2,0,0,0,2.768-2.162,9.827,9.827,0,0,0,1.607-3.149c.2-.588.371-1.193.516-1.808s.281-1.246.386-1.851l1.016.062a18.412,18.412,0,0,1-.436,4.006,13.23,13.23,0,0,1-.6,1.978,8.22,8.22,0,0,1-1.039,1.906,10.991,10.991,0,0,1-3.2,2.777,15.752,15.752,0,0,1-1.853.937c-.319.135-.64.249-.969.371-.162.057-.326.112-.5.162s-.324.1-.528.147Z" transform="translate(-191.092 -119.714)" fill="#7f3e3b"/>
      <path id="Path_35" data-name="Path 35" d="M248.637,122.7l.423-1.522-1.681.13a2.184,2.184,0,0,0,.461,1.6Z" transform="translate(-216.246 -116.342)" fill="#7f3e3b"/>
      <path id="Path_36" data-name="Path 36" d="M249.343,114.07l-1.534.4-.4,1.5,1.681-.13Z" transform="translate(-216.277 -111.003)" fill="#7f3e3b"/>
      <path id="Path_37" data-name="Path 37" d="M205.5,165.026a8.89,8.89,0,0,1,2.74-1.246l2.155,3.238s-2.459,1.642-3.5,1.26C205.809,167.9,204.781,165.681,205.5,165.026Z" transform="translate(-184.628 -148.33)" fill="#1ebec3"/>
      <path id="Path_38" data-name="Path 38" d="M177.74,345.415l1.343,1.475,3.854-2.745-1.343-1.475Z" transform="translate(-163.962 -282.658)" fill="#7f3e3b"/>
      <path id="Path_39" data-name="Path 39" d="M147.32,365.374l1.8.894,2.648-3.883-1.8-.894Z" transform="translate(-141.119 -296.79)" fill="#7f3e3b"/>
      <path id="Path_40" data-name="Path 40" d="M145.7,374.22l-1.39-1.781a.159.159,0,0,0-.207-.042l-1.567.9a.321.321,0,0,0-.085.473c.5.613.765.884,1.378,1.669.374.481,1.136,1.6,1.654,2.267s1.206.189,1.049-.134a5.834,5.834,0,0,1-.722-3.007A.521.521,0,0,0,145.7,374.22Z" transform="translate(-137.412 -304.964)" fill="#263238"/>
      <path id="Path_41" data-name="Path 41" d="M174.712,352.723l-.917-2.2a.192.192,0,0,0-.2-.117l-1.943.249a.294.294,0,0,0-.237.414c.334.765.536,1.121.939,2.09.249.6.827,2.16,1.168,2.989s1.218.633,1.153.269a6.494,6.494,0,0,1,.05-3.321.483.483,0,0,0-.01-.371Z" transform="translate(-159.19 -288.464)" fill="#263238"/>
      <path id="Path_42" data-name="Path 42" d="M188.077,344.145l-1.985,1.415-1.5-1.36,2.145-1.529Z" transform="translate(-169.105 -282.658)" opacity="0.2"/>
      <path id="Path_43" data-name="Path 43" d="M153.828,361.49l1.8.894-1.368,2-1.8-.9Z" transform="translate(-144.979 -296.79)" opacity="0.2"/>
      <path id="Path_44" data-name="Path 44" d="M185.244,167.951s.06-.09-1.031,11.812l-8.146.57a47.654,47.654,0,0,0-1.4-12.5,23.963,23.963,0,0,1,3.47-.438,25.77,25.77,0,0,1,3.707.02C183.438,167.57,185.244,167.951,185.244,167.951Z" transform="translate(-161.657 -151.004)" fill="#1ebec3"/>
      <path id="Path_45" data-name="Path 45" d="M155.422,140.854c-.605-.279-1.136-.578-1.686-.894s-1.071-.655-1.589-1.014a19.155,19.155,0,0,1-2.927-2.446l-.329-.356-.085-.09a2.211,2.211,0,0,1-.137-.174,2.178,2.178,0,0,1-.2-.349,3.144,3.144,0,0,1-.249-1.231,8,8,0,0,1,.269-1.993,18.575,18.575,0,0,1,1.31-3.527l.952.369c-.147.565-.286,1.153-.411,1.729s-.229,1.156-.3,1.724a7.346,7.346,0,0,0-.065,1.614,1.5,1.5,0,0,0,.139.538c0,.017.025.037.032.04h0l.077.072.306.291a21.384,21.384,0,0,0,2.74,2.1c.486.321,1,.615,1.495.912s1.034.578,1.52.825Z" transform="translate(-141.795 -122.049)" fill="#7f3e3b"/>
      <path id="Path_46" data-name="Path 46" d="M172.68,167.338a3.619,3.619,0,0,0-2.74-1.268l-2.19,3.238s2.444,1.664,3.487,1.293C172.343,170.208,173.25,168.13,172.68,167.338Z" transform="translate(-156.46 -150.05)" fill="#1ebec3"/>
      <path id="Path_47" data-name="Path 47" d="M191.264,167.59l-3.707-.02c-.568.229-.9,1.706,2.865,2.957C193.03,169.045,191.643,167.727,191.264,167.59Z" transform="translate(-171.074 -151.176)" fill="#fff"/>
      <path id="Path_48" data-name="Path 48" d="M188.989,150.82c.227,1.193.448,3.38-.389,4.172,0,0,.324,1.213,2.865,2.957,1.781-1.786.842-2.937.842-2.937-1.328-.326-1.288-1.313-1.051-2.242Z" transform="translate(-172.117 -138.599)" fill="#7f3e3b"/>
      <path id="Path_49" data-name="Path 49" d="M207.1,173.322h-.04a.5.5,0,0,1-.456-.536c.09-1.111-.747-1.95-1.709-2.924-1.1-1.113-2.357-2.376-2.406-4.342a.5.5,0,0,1,1-.025c.04,1.569,1.1,2.636,2.117,3.667s2.12,2.137,1.993,3.7A.5.5,0,0,1,207.1,173.322Z" transform="translate(-182.546 -149.253)" fill="#263238"/>
      <path id="Path_50" data-name="Path 50" d="M184.853,175.88a.5.5,0,0,1-.483-.618c.481-1.953-.149-3.487-.817-5.1a8.329,8.329,0,0,1-.917-4.7.5.5,0,0,1,.981.169,7.482,7.482,0,0,0,.854,4.155,8.754,8.754,0,0,1,.864,5.729A.5.5,0,0,1,184.853,175.88Z" transform="translate(-167.579 -149.29)" fill="#263238"/>
      <path id="Path_51" data-name="Path 51" d="M194.376,157l-1,.117a2.27,2.27,0,0,0,.284.76,1.322,1.322,0,0,0,1.069.438,3.36,3.36,0,0,1,.125-.912Z" transform="translate(-175.706 -143.239)" opacity="0.2"/>
      <path id="Path_52" data-name="Path 52" d="M180.71,134.712c.73,1.858,1,2.66,2.269,3.323a2.549,2.549,0,0,0,3.876-2.339c-.142-1.836-1.31-4.566-3.41-4.721a2.723,2.723,0,0,0-2.735,3.737Z" transform="translate(-166.042 -123.691)" fill="#7f3e3b"/>
      <path id="Path_53" data-name="Path 53" d="M179.768,129.428c1.417.872.2,6-2.195,5.729S177.673,128.14,179.768,129.428Z" transform="translate(-163.101 -122.413)" fill="#263238"/>
      <path id="Path_54" data-name="Path 54" d="M187.77,129.013c-1.069.71-.339,1.945,3.263,1.213C191.033,130.223,189.543,127.832,187.77,129.013Z" transform="translate(-171.154 -121.978)" fill="#263238"/>
      <path id="Path_55" data-name="Path 55" d="M182.122,150.357a1.465,1.465,0,0,0,.807.767c.481.179.762-.249.668-.715-.087-.426-.441-1.036-.939-1.011a.655.655,0,0,0-.536.959Z" transform="translate(-167.196 -137.53)" fill="#7f3e3b"/>
      <path id="Path_56" data-name="Path 56" d="M192.688,217.21s4.359,14.231,4.711,20.354c.364,6.37-9.095,13.927-9.095,13.927l-2.354-2.583s7.685-6.527,6.631-11.254c-1.457-6.517-5.871-20.025-5.871-20.025Z" transform="translate(-170.127 -188.451)" fill="#263238"/>
      <path id="Path_57" data-name="Path 57" d="M197.284,234.068c-.4-1.246-1.285-.409-1.594.912.615,1.993,1.328,4.324,2.005,6.659A18.951,18.951,0,0,0,197.284,234.068Z" transform="translate(-177.44 -200.65)" opacity="0.2"/>
      <path id="Path_58" data-name="Path 58" d="M183.39,340.769l2.987,3.081,1.275-.7L184.5,339.71Z" transform="translate(-168.204 -280.436)" fill="#1ebec3"/>
      <path id="Path_59" data-name="Path 59" d="M165.574,217.82s-1.246,13.95-2.491,21.719c-1.009,6.277-7.862,16.53-7.862,16.53L152.71,254.9s4.606-10.978,5.323-15.245c2.3-13.658-.807-17.6,1.547-21.423Z" transform="translate(-145.167 -188.909)" fill="#263238"/>
      <path id="Path_60" data-name="Path 60" d="M152,362.8l2.832,1.39.929-1.153-3.313-1.562Z" transform="translate(-144.634 -296.775)" fill="#1ebec3"/>
      <path id="Path_61" data-name="Path 61" d="M178.691,215.606l-.316.747c-.025.057.045.112.14.1l8.544-.6c.072,0,.132-.045.132-.092l.022-.747c0-.05-.065-.087-.144-.082l-8.25.578A.142.142,0,0,0,178.691,215.606Z" transform="translate(-164.434 -186.745)" fill="#fff"/>
      <path id="Path_62" data-name="Path 62" d="M183.459,217.816l-.219.015c-.045,0-.08-.017-.08-.045l.037-.954c0-.027.04-.055.082-.057l.222-.015c.045,0,.08.017.077.045l-.037.954C183.541,217.791,183.5,217.816,183.459,217.816Z" transform="translate(-168.032 -188.113)" fill="#263238"/>
      <path id="Path_63" data-name="Path 63" d="M209.879,215.976l-.222.015c-.045,0-.08-.017-.077-.045l.037-.954c0-.027.037-.052.082-.057l.219-.015c.045,0,.08.017.08.045l-.037.957C209.958,215.949,209.933,215.974,209.879,215.976Z" transform="translate(-187.87 -186.731)" fill="#263238"/>
      <path id="Path_64" data-name="Path 64" d="M196.669,216.906l-.222.015c-.042,0-.077-.017-.077-.045l.037-.957c0-.027.037-.052.082-.055l.222-.015c.042,0,.077.017.077.045l-.037.954C196.751,216.884,196.714,216.9,196.669,216.906Z" transform="translate(-177.951 -187.429)" fill="#263238"/>
      <path id="Path_65" data-name="Path 65" d="M192.953,143.168c-.12.04-.169.219-.11.4l.436-.139C193.22,143.247,193.073,143.118,192.953,143.168Z" transform="translate(-175.284 -132.844)" fill="#263238"/>
      <path id="Path_66" data-name="Path 66" d="M200.586,140.759c-.122.04-.172.222-.112.406l.438-.142C200.835,140.839,200.693,140.722,200.586,140.759Z" transform="translate(-181.014 -131.039)" fill="#263238"/>
      <path id="Path_67" data-name="Path 67" d="M200.75,140.079l.4-.269S201.036,140.228,200.75,140.079Z" transform="translate(-181.24 -130.331)" fill="#263238"/>
      <path id="Path_68" data-name="Path 68" d="M199,143.8a4.309,4.309,0,0,0,.867.807.7.7,0,0,1-.516.281Z" transform="translate(-179.926 -133.327)" fill="#630f0f"/>
      <path id="Path_69" data-name="Path 69" d="M195.267,150.524a.05.05,0,0,0,.015-.052.047.047,0,0,0-.06-.03,1.29,1.29,0,0,1-1.151-.154.047.047,0,0,0-.067,0,.045.045,0,0,0,0,.067,1.355,1.355,0,0,0,1.245.174Z" transform="translate(-176.163 -138.188)" fill="#263238"/>
      <path id="Path_70" data-name="Path 70" d="M190.357,140.564a.089.089,0,0,0,.027-.04.747.747,0,0,1,.483-.5.095.095,0,1,0-.045-.184.949.949,0,0,0-.618.613.1.1,0,0,0,.06.12.09.09,0,0,0,.092-.01Z" transform="translate(-173.318 -130.353)" fill="#263238"/>
      <path id="Path_71" data-name="Path 71" d="M200.045,136.709a.03.03,0,0,0,.012-.012.095.095,0,0,0-.015-.135.952.952,0,0,0-.849-.187.095.095,0,0,0-.06.122.1.1,0,0,0,.12.06.747.747,0,0,1,.67.154A.1.1,0,0,0,200.045,136.709Z" transform="translate(-180.022 -127.728)" fill="#263238"/>
      <path id="Path_72" data-name="Path 72" d="M138.986,115.726a.339.339,0,0,1-.172-.047l-7.578-4.668a.329.329,0,0,1,.344-.558l7.578,4.668a.326.326,0,0,1-.172.605Z" transform="translate(-128.942 -108.26)" fill="#1ebec3"/>
      <path id="Path_73" data-name="Path 73" d="M126.439,105.025c.426-.017.864-.037.922-.421s-.354-.531-.747-.675l-.107-.04a.416.416,0,0,0-.027-.11l.087-.1c.279-.309.57-.628.344-.932s-.615-.125-1,.052l-.117.055c-.032-.022-.065-.04-.1-.06s0-.08,0-.115c-.02-.423-.04-.862-.421-.919s-.531.354-.675.747c-.012.032-.025.07-.04.107l-.112.027-.095-.085c-.309-.281-.628-.57-.932-.346s-.125.615.052,1l.055.117a1.024,1.024,0,0,0-.06.1h-.115c-.423.02-.864.04-.922.423s.356.531.747.675l.107.04a.416.416,0,0,0,.027.11c-.03.035-.06.07-.087.1-.279.309-.568.625-.344.932s.615.122,1-.052l.12-.055.1.06v.115c.02.423.04.862.421.919s.533-.354.678-.747a.5.5,0,0,1,.037-.107.919.919,0,0,0,.112-.027l.1.087c.306.279.625.57.932.346s.122-.615-.055-1c-.015-.032-.035-.075-.052-.117l.06-.1Z" transform="translate(-122.429 -101.758)" fill="#1ebec3"/>
      <path id="Path_74" data-name="Path 74" d="M126.439,105.025c.426-.017.864-.037.922-.421s-.354-.531-.747-.675l-.107-.04a.416.416,0,0,0-.027-.11l.087-.1c.279-.309.57-.628.344-.932s-.615-.125-1,.052l-.117.055c-.032-.022-.065-.04-.1-.06s0-.08,0-.115c-.02-.423-.04-.862-.421-.919s-.531.354-.675.747c-.012.032-.025.07-.04.107l-.112.027-.095-.085c-.309-.281-.628-.57-.932-.346s-.125.615.052,1l.055.117a1.024,1.024,0,0,0-.06.1h-.115c-.423.02-.864.04-.922.423s.356.531.747.675l.107.04a.416.416,0,0,0,.027.11c-.03.035-.06.07-.087.1-.279.309-.568.625-.344.932s.615.122,1-.052l.12-.055.1.06v.115c.02.423.04.862.421.919s.533-.354.678-.747a.5.5,0,0,1,.037-.107.919.919,0,0,0,.112-.027l.1.087c.306.279.625.57.932.346s.122-.615-.055-1c-.015-.032-.035-.075-.052-.117l.06-.1Z" transform="translate(-122.429 -101.758)" fill="#fff" opacity="0.7"/>
      <path id="Path_75" data-name="Path 75" d="M152.731,126.043l-.311-1.993,2.033,1a1.761,1.761,0,0,1-.5.879.822.822,0,0,1-.839.249Z" transform="translate(-144.949 -118.497)" fill="#7f3e3b"/>
      <path id="Path_76" data-name="Path 76" d="M153.561,120.13l1.041.914-.149,1.046-2.033-.986Z" transform="translate(-144.949 -115.554)" fill="#7f3e3b"/>
      <path id="Path_77" data-name="Path 77" d="M155.984,381.422a.534.534,0,0,0,.06-.05.159.159,0,0,0,.047-.157c-.06-.249-.747-.5-.825-.516a.042.042,0,0,0-.05.012.047.047,0,0,0,0,.052c.112.249.336.658.588.7a.249.249,0,0,0,.179-.042Zm-.64-.593c.272.1.623.277.655.409a.07.07,0,0,1-.025.067.179.179,0,0,1-.162.067c-.137-.025-.306-.224-.468-.543Z" transform="translate(-147.043 -311.212)" fill="#1ebec3"/>
      <path id="Path_78" data-name="Path 78" d="M156.073,379.82a.156.156,0,0,0,.042-.037.164.164,0,0,0,0-.209.249.249,0,0,0-.174-.12c-.286-.052-.747.3-.765.316a.05.05,0,0,0-.017.045.052.052,0,0,0,.027.037A1.26,1.26,0,0,0,156.073,379.82Zm-.747-.037a1.049,1.049,0,0,1,.6-.234.144.144,0,0,1,.11.075c.032.052.017.08,0,.1a1.019,1.019,0,0,1-.725.07Z" transform="translate(-147.005 -310.275)" fill="#1ebec3"/>
      <path id="Path_79" data-name="Path 79" d="M184.368,362.145a.78.78,0,0,0,.281.389.291.291,0,0,0,.249.022.137.137,0,0,0,.1-.1c.052-.249-.6-.864-.732-1a.05.05,0,0,0-.055,0,.045.045,0,0,0-.022.05A3.009,3.009,0,0,0,184.368,362.145Zm.518.187a.174.174,0,0,1,.017.092c0,.012,0,.025-.035.035a.207.207,0,0,1-.179-.015,1.323,1.323,0,0,1-.381-.812,3.014,3.014,0,0,1,.578.7Z" transform="translate(-168.801 -296.758)" fill="#1ebec3"/>
      <path id="Path_80" data-name="Path 80" d="M184.192,361.472a.051.051,0,0,0,0,.015c.2.207.815.541,1.011.426.042-.025.087-.08.052-.2-.127-.458-1-.314-1.039-.306a.045.045,0,0,0-.037.032A.05.05,0,0,0,184.192,361.472Zm.971.237.012.03v.092c-.115.065-.575-.149-.82-.344C184.561,361.465,185.054,361.445,185.164,361.709Z" transform="translate(-168.798 -296.708)" fill="#1ebec3"/>
      <path id="Path_81" data-name="Path 81" d="M193.16,142.492l.4-.272S193.446,142.641,193.16,142.492Z" transform="translate(-175.541 -132.141)" fill="#263238"/>
    </g>
    <g id="freepik--character-2--inject-37" transform="translate(62.502 69.122)">
      <path id="Path_82" data-name="Path 82" d="M316.5,391.8l-1.931,0-.521-4.469,1.931,0Z" transform="translate(-298.321 -318.667)" fill="#ffc3bd"/>
      <path id="Path_83" data-name="Path 83" d="M376.213,362.786l-1.462,1.263L371.44,361l1.46-1.263Z" transform="translate(-341.415 -297.95)" fill="#ffc3bd"/>
      <path id="Path_84" data-name="Path 84" d="M378.178,372.087l1.779-1.539a.162.162,0,0,1,.207,0l1.355,1.081a.3.3,0,0,1,0,.453c-.58.486-1.026.812-1.744,1.435-.443.384-1.744,1.589-2.357,2.12s-1.193-.03-1-.3a7.926,7.926,0,0,0,1.584-2.957A.5.5,0,0,1,378.178,372.087Z" transform="translate(-345.127 -306.037)" fill="#263238"/>
      <path id="Path_85" data-name="Path 85" d="M303.083,404.38h2.11a.169.169,0,0,1,.164.132l.384,1.716a.281.281,0,0,1-.276.344c-.762-.012-1.861-.055-2.817-.055-1.116,0-1.771.03-3.081.032-.792,0-1.014-.8-.683-.872a10.029,10.029,0,0,0,3.737-1.143A.892.892,0,0,1,303.083,404.38Z" transform="translate(-286.82 -331.47)" fill="#263238"/>
      <path id="Path_86" data-name="Path 86" d="M262.157,139.709c-.389-.149-.722-.286-1.071-.446s-.685-.316-1.024-.483a22.252,22.252,0,0,1-1.993-1.111,18.773,18.773,0,0,1-1.891-1.325c-.152-.125-.306-.249-.456-.376l-.443-.406c-.147-.135-.286-.289-.428-.433-.072-.08-.135-.137-.217-.232s-.162-.187-.234-.281a6.084,6.084,0,0,1-.69-1.161,9.086,9.086,0,0,1-.441-1.158,14.145,14.145,0,0,1-.5-2.287,21.247,21.247,0,0,1-.112-4.5h1.45c.1.675.2,1.385.341,2.068s.281,1.365.458,2.023a14.427,14.427,0,0,0,.633,1.886,5.411,5.411,0,0,0,.879,1.495l.122.125c.037.04.112.1.167.149.12.1.229.209.356.306.249.2.5.4.777.585.538.374,1.106.73,1.7,1.064s1.2.65,1.813.949c.309.152.62.3.932.441s.638.286.917.406Z" transform="translate(-252.17 -122.067)" fill="#ffc3bd"/>
      <path id="Path_87" data-name="Path 87" d="M282.884,170.255a22.552,22.552,0,0,1-3.1-2.322l.77-3.933a35.92,35.92,0,0,0,4.357.952C287.335,165.265,284.615,171.286,282.884,170.255Z" transform="translate(-272.587 -150.969)" fill="#263238"/>
      <path id="Path_88" data-name="Path 88" d="M252.9,119.459l.137-2.459-2.043.655s-.476,1.761.849,2.224Z" transform="translate(-250.906 -115.677)" fill="#ffc3bd"/>
      <path id="Path_89" data-name="Path 89" d="M253.036,111.69l-1.686.7-.11,1.275,2.043-.655Z" transform="translate(-251.157 -111.69)" fill="#ffc3bd"/>
      <path id="Path_90" data-name="Path 90" d="M314.06,387.332l.267,2.3,1.931,0-.267-2.3Z" transform="translate(-298.328 -318.667)" opacity="0.2"/>
      <path id="Path_91" data-name="Path 91" d="M372.9,359.74,371.44,361l1.709,1.569,1.46-1.263Z" transform="translate(-341.415 -297.95)" opacity="0.2"/>
      <path id="Path_92" data-name="Path 92" d="M297.237,164.264a1.036,1.036,0,0,0-1.011-1.069,23.836,23.836,0,0,0-9.341,1.542.583.583,0,0,0-.356.441c-.229,1.38-.879,7.164,2.307,16.217l10.213-1.462C298.911,178.426,297.008,171.51,297.237,164.264Z" transform="translate(-277.495 -150.362)" fill="#263238"/>
      <path id="Path_93" data-name="Path 93" d="M295.664,164.162c-.605.81-.879,2.675,1.126,4.04a12.138,12.138,0,0,0,4.113-4.853A25.615,25.615,0,0,0,295.664,164.162Z" transform="translate(-284.182 -150.481)" fill="#fff"/>
      <path id="Path_94" data-name="Path 94" d="M293.658,162.344a.5.5,0,0,1-.5-.5,1.422,1.422,0,0,1,.658-1,6.38,6.38,0,0,1,5.48-.6.5.5,0,0,1-.276.957c-2.89-.834-4.671.351-4.863.693A.5.5,0,0,1,293.658,162.344Z" transform="translate(-282.635 -147.906)" fill="#1ebec3"/>
      <path id="Path_95" data-name="Path 95" d="M301.448,144.34c-.075,1.437.017,4.038,1.128,4.83a4.927,4.927,0,0,1-3.174,2.175c-1,.177-1.338-.192-1.38-.658a1.2,1.2,0,0,1,.608-1.118c1.074-.623.859-1.624.473-2.571Z" transform="translate(-286.284 -136.207)" fill="#ffc3bd"/>
      <path id="Path_96" data-name="Path 96" d="M289.151,177.993a.478.478,0,0,1-.164-.03.5.5,0,0,1-.3-.635,1.353,1.353,0,0,0-.04-1.089l-.052-.142a1.654,1.654,0,0,0-.334-.448,1.619,1.619,0,0,1-.426-2.005,1.341,1.341,0,0,0,.107-.448,1.663,1.663,0,0,0-.227-.5,1.97,1.97,0,0,1-.351-1,1.945,1.945,0,0,1,.391-1.031,1.352,1.352,0,0,0,.2-.374,1,1,0,0,0-.08-.4,1.5,1.5,0,0,1-.085-.9,1.639,1.639,0,0,1,.593-.847.931.931,0,0,0,.207-.217.65.65,0,0,0,0-.369,1.141,1.141,0,0,1,.112-.854c.174-.274.157-.344.142-.4a.846.846,0,0,1-.032-.269.5.5,0,1,1,1,0v.015a1.389,1.389,0,0,1-.249,1.168,1.516,1.516,0,0,0,.022.174,1.383,1.383,0,0,1-.536,1.495c-.159.139-.249.224-.284.346a.707.707,0,0,0,.067.334,1.831,1.831,0,0,1,.122.839,1.931,1.931,0,0,1-.349.79,1.2,1.2,0,0,0-.234.5,1.387,1.387,0,0,0,.217.486,2.317,2.317,0,0,1,.356.887,2.06,2.06,0,0,1-.152.877,1.246,1.246,0,0,0-.112.565,1.4,1.4,0,0,0,.331.456,2.408,2.408,0,0,1,.538.792l.045.13a2.307,2.307,0,0,1,.042,1.756A.5.5,0,0,1,289.151,177.993ZM289.8,166.091Z" transform="translate(-278.279 -152.126)" fill="#1ebec3"/>
      <path id="Path_97" data-name="Path 97" d="M323.9,167.17c.272.249.5.458.727.7s.453.471.675.71c.443.478.862.981,1.265,1.495a16.191,16.191,0,0,1,2.095,3.468,10.344,10.344,0,0,1,.364,1.014c.052.174.1.356.139.541l.015.067.022.117a2.347,2.347,0,0,1,.03.249,2.45,2.45,0,0,1-.015.5,2.491,2.491,0,0,1-.267.852,3.309,3.309,0,0,1-.421.618,4.483,4.483,0,0,1-.924.8,8.5,8.5,0,0,1-1.878.922c-.314.115-.63.212-.949.294s-.628.159-.974.217l-.448-1.378c.249-.139.516-.286.767-.436s.5-.306.747-.463a9.194,9.194,0,0,0,1.3-1,2.682,2.682,0,0,0,.406-.5c.087-.142.08-.237.055-.207a.057.057,0,0,0,0,.025h0l-.015-.045c-.037-.115-.072-.232-.122-.351a7.084,7.084,0,0,0-.316-.712,11.676,11.676,0,0,0-.852-1.417c-.316-.468-.665-.927-1.034-1.375s-.747-.889-1.148-1.325c-.2-.217-.4-.428-.6-.638s-.418-.428-.6-.6Z" transform="translate(-304.245 -153.35)" fill="#ffc3bd"/>
      <path id="Path_98" data-name="Path 98" d="M320.22,163.274c1.126.167,2.892,2.989,2.892,2.989l-2.867,3.844a9.059,9.059,0,0,1-1.975-2.74C317.427,164.906,318.008,162.95,320.22,163.274Z" transform="translate(-301.212 -150.398)" fill="#263238"/>
      <path id="Path_99" data-name="Path 99" d="M314.34,171.456a.5.5,0,0,1-.426-.249,2.018,2.018,0,0,1-.214-1.086,1.353,1.353,0,0,0-.04-.461,1.614,1.614,0,0,0-.371-.4,1.963,1.963,0,0,1-.645-.832,1.916,1.916,0,0,1,.047-1.1,1.4,1.4,0,0,0,.072-.418,1.624,1.624,0,0,0-.269-.471,1.5,1.5,0,0,1-.082-1.993,1.437,1.437,0,0,0,.162-.326,1.646,1.646,0,0,0-.134-.548,1.594,1.594,0,0,1-.139-.947,2.289,2.289,0,0,1,.663-1.2l.032-.032a.5.5,0,0,1,.717.69l-.057.057a1.35,1.35,0,0,0-.391.73,2.266,2.266,0,0,0,.112.366,2.331,2.331,0,0,1,.192.957,1.781,1.781,0,0,1-.3.76,1.137,1.137,0,0,0-.207.5,1.47,1.47,0,0,0,.249.423,2.3,2.3,0,0,1,.431.849,1.923,1.923,0,0,1-.082.859,1.245,1.245,0,0,0-.067.548,1.429,1.429,0,0,0,.361.394,2.341,2.341,0,0,1,.615.732,2.025,2.025,0,0,1,.13.879,1.321,1.321,0,0,0,.072.573.5.5,0,0,1-.433.752Z" transform="translate(-296.834 -148.905)" fill="#1ebec3"/>
      <path id="Path_100" data-name="Path 100" d="M303.765,148.69l-1.385,1.572a4.559,4.559,0,0,1,.249.747,1.946,1.946,0,0,0,1.283-1.574A2.126,2.126,0,0,0,303.765,148.69Z" transform="translate(-289.558 -139.473)" opacity="0.2"/>
      <path id="Path_101" data-name="Path 101" d="M295.208,127.344a4,4,0,0,0-.222,2.6,1.1,1.1,0,0,0,1.118.05l-.174-2.84Z" transform="translate(-283.913 -123.299)" fill="#263238"/>
      <path id="Path_102" data-name="Path 102" d="M298.416,128.947c-.471,1.858-.653,2.969-1.784,3.754a2.545,2.545,0,0,1-3.951-2.08c-.085-1.766.7-4.506,2.683-4.9a2.611,2.611,0,0,1,3.051,3.231Z" transform="translate(-282.271 -122.181)" fill="#ffc3bd"/>
      <path id="Path_103" data-name="Path 103" d="M278.894,139.557h-.067l-4.222-.894a.885.885,0,1,1,.366-1.731.325.325,0,1,1-.137.635.217.217,0,0,0-.174.032.229.229,0,0,0-.1.144.231.231,0,0,0,.177.274l4.222.894a.326.326,0,0,1-.067.645Z" transform="translate(-268.174 -130.629)" fill="#1ebec3"/>
      <path id="Path_104" data-name="Path 104" d="M292.331,145.247l-.511-.11.162-.747.5.107a.389.389,0,0,1,.3.461h0A.394.394,0,0,1,292.331,145.247Z" transform="translate(-281.628 -136.244)" fill="#fff"/>
      <path id="Path_105" data-name="Path 105" d="M298.51,126.032c0-.707-.533-1.223-2.312-1.086-1.452.11-2.16-.568-1.744-1.512,1.176.613.981-.189,3.223-.286s2.892.747,3.129,2.06c1.373,2.035-1,2.88-1,2.88l-.927.81a1.1,1.1,0,0,1-1.066-.341A3.513,3.513,0,0,1,298.51,126.032Z" transform="translate(-283.518 -120.287)" fill="#263238"/>
      <path id="Path_106" data-name="Path 106" d="M300.808,121.461l-.057.03a.344.344,0,0,0-.02.6l5.2,3.216a.344.344,0,0,0,.521-.249h0a.83.83,0,0,0-.384-.83l-4.434-2.74A.832.832,0,0,0,300.808,121.461Z" transform="translate(-288.198 -118.953)" fill="#1ebec3"/>
      <path id="Path_107" data-name="Path 107" d="M305.29,116.922l1.33-1.948a.264.264,0,0,1,.354-.077l3.672,2.2a.262.262,0,0,1,.075.386l-1.592,2.1Z" transform="translate(-291.743 -114.069)" fill="#1ebec3"/>
      <path id="Path_108" data-name="Path 108" d="M305.29,120.279l.531-.949,4.1,2.71-.792.9Z" transform="translate(-291.743 -117.427)" fill="#1ebec3"/>
      <path id="Path_109" data-name="Path 109" d="M305.29,120.279l.531-.949,4.1,2.71-.792.9Z" transform="translate(-291.743 -117.427)" fill="#fff" opacity="0.6"/>
      <path id="Path_110" data-name="Path 110" d="M311.562,143.875a1.691,1.691,0,0,1-1.246.269c-.565-.11-.565-.683-.174-1.089.351-.366,1.071-.747,1.525-.431A.751.751,0,0,1,311.562,143.875Z" transform="translate(-295.18 -134.83)" fill="#ffc3bd"/>
      <path id="Path_111" data-name="Path 111" d="M299.736,272.909H303s-.513-11.623-1.218-17.6c-.214-1.818.017-4.309.04-7.092.03-3.5.192-7.324.351-10.32.169-3.156.311-5.43.311-5.43l-6.686.954s-.663,16.548.376,22.347C297.26,261.794,299.736,272.909,299.736,272.909Z" transform="translate(-284.462 -202.383)" fill="#1ebec3"/>
      <path id="Path_112" data-name="Path 112" d="M316.832,260.543c.03-3.5.192-7.324.351-10.32l-1-1.333C314.956,251.194,315.811,257.33,316.832,260.543Z" transform="translate(-299.469 -214.713)" opacity="0.2"/>
      <path id="Path_113" data-name="Path 113" d="M309.22,231.406s4.153,16.4,6.125,21.7c2.16,5.8,10.114,12.59,10.114,12.59l2.01-2.212s-4.207-6.559-7.309-12.869c-1.482-8.193-3.9-20.217-3.9-20.217Z" transform="translate(-294.694 -200.829)" fill="#1ebec3"/>
      <path id="Path_114" data-name="Path 114" d="M369.6,362.4l3.151-2.723-.815-.939-3.575,2.982Z" transform="translate(-339.102 -297.199)" fill="#263238"/>
      <path id="Path_115" data-name="Path 115" d="M309.188,391.123l3.9,0,0-1.258-4.352-.06Z" transform="translate(-294.326 -320.522)" fill="#263238"/>
      <path id="Path_116" data-name="Path 116" d="M303.2,137.369c-.125-.037-.272.082-.331.269l.443.142C303.373,137.594,303.323,137.409,303.2,137.369Z" transform="translate(-289.926 -130.967)" fill="#263238"/>
      <path id="Path_117" data-name="Path 117" d="M295.649,135.92c-.127,0-.249.144-.249.341l.463.03C295.871,136.094,295.779,135.94,295.649,135.92Z" transform="translate(-284.316 -129.884)" fill="#263238"/>
      <path id="Path_118" data-name="Path 118" d="M296.139,138.2a5.6,5.6,0,0,1-.979,1.171.9.9,0,0,0,.707.274Z" transform="translate(-284.136 -131.596)" fill="#ed847e"/>
      <path id="Path_119" data-name="Path 119" d="M305,134.392a.1.1,0,0,0,.047,0,.092.092,0,0,0,.06-.115.9.9,0,0,0-.568-.61.087.087,0,0,0-.112.062.09.09,0,0,0,.062.112h0a.727.727,0,0,1,.443.5A.1.1,0,0,0,305,134.392Z" transform="translate(-291.093 -128.189)" fill="#263238"/>
      <path id="Path_120" data-name="Path 120" d="M293.849,133.483a.092.092,0,0,0,.082-.027.73.73,0,0,1,.61-.249.092.092,0,0,0,.1-.077.09.09,0,0,0-.075-.1.907.907,0,0,0-.775.309.09.09,0,0,0,0,.13A.1.1,0,0,0,293.849,133.483Z" transform="translate(-283.092 -127.708)" fill="#263238"/>
      <path id="Path_121" data-name="Path 121" d="M380.683,378.2a2.334,2.334,0,0,0,.339-.386.045.045,0,0,0,0-.05.04.04,0,0,0-.045-.022c-.08,0-.79.117-.882.344a.154.154,0,0,0,.02.152.267.267,0,0,0,.224.127A.565.565,0,0,0,380.683,378.2Zm.2-.349c-.207.267-.406.421-.541.421a.177.177,0,0,1-.149-.09.055.055,0,0,1,0-.06C380.227,378,380.6,377.9,380.882,377.847Z" transform="translate(-347.905 -311.463)" fill="#1ebec3"/>
      <path id="Path_122" data-name="Path 122" d="M381.092,376.591a.059.059,0,0,0,.015-.022.053.053,0,0,0,0-.047c-.017-.017-.4-.423-.683-.421a.249.249,0,0,0-.184.082h0a.155.155,0,0,0-.035.189c.1.194.658.274.877.229Zm-.782-.359a.154.154,0,0,1,.1-.037,1.084,1.084,0,0,1,.551.324c-.249.012-.63-.077-.693-.192a.073.073,0,0,1,.022-.08h0Z" transform="translate(-347.983 -310.235)" fill="#1ebec3"/>
      <path id="Path_123" data-name="Path 123" d="M311.9,404.2a.045.045,0,0,0,.03-.037.042.042,0,0,0-.022-.047c-.09-.045-.864-.438-1.1-.306a.145.145,0,0,0-.077.122h0a.249.249,0,0,0,.087.222c.212.187.765.11,1.076.047Zm-1.031-.319a1.962,1.962,0,0,1,.874.249,1.223,1.223,0,0,1-.864-.052.162.162,0,0,1-.055-.147.052.052,0,0,1,.03-.047Z" transform="translate(-295.829 -331.021)" fill="#1ebec3"/>
      <path id="Path_124" data-name="Path 124" d="M313.352,402.841h.012a.052.052,0,0,0,.02-.042,1.332,1.332,0,0,0-.3-.747.331.331,0,0,0-.249-.077h0a.15.15,0,0,0-.169.127c-.035.219.426.635.66.747a.05.05,0,0,0,.027-.007Zm-.56-.77h.047a.234.234,0,0,1,.184.06,1.064,1.064,0,0,1,.249.593c-.237-.142-.553-.468-.531-.6A.057.057,0,0,1,312.791,402.072Zm.042-.055Z" transform="translate(-297.279 -329.663)" fill="#1ebec3"/>
      <path id="Path_125" data-name="Path 125" d="M322.948,211.54l-1.858.588,1.442,1.435s1.684-.73,1.156-1.472Z" transform="translate(-303.607 -186.667)" fill="#ffc3bd"/>
      <path id="Path_126" data-name="Path 126" d="M318.02,215.539l1.323.8.884-1.006-1.442-1.435Z" transform="translate(-301.302 -188.439)" fill="#ffc3bd"/>
    </g>
  </g>
</svg>
